<?xml version="1.0" encoding="iso-8859-1"?>
<!-- Generator: Adobe Illustrator 21.0.0, SVG Export Plug-In . SVG Version: 6.00 Build 0)  -->
<svg version="1.1" id="Capa_1" xmlns="http://www.w3.org/2000/svg" xmlns:xlink="http://www.w3.org/1999/xlink" x="0px" y="0px"
	 viewBox="0 0 1240.328 1240.328" style="enable-background:new 0 0 1240.328 1240.328;" xml:space="preserve">
<g>
	<g id="Computer_Display-Error-404">
		
			<linearGradient id="SVGID_1_" gradientUnits="userSpaceOnUse" x1="620.1639" y1="1213.3844" x2="620.1639" y2="-87.0994" gradientTransform="matrix(1 0 0 -1 0 1260)">
			<stop  offset="0" style="stop-color:#FFF33B"/>
			<stop  offset="0.014" style="stop-color:#FEE72E"/>
			<stop  offset="0.042" style="stop-color:#FED51B"/>
			<stop  offset="0.07" style="stop-color:#FDCA10"/>
			<stop  offset="0.1" style="stop-color:#FDC70C"/>
			<stop  offset="0.4" style="stop-color:#F3903F"/>
			<stop  offset="0.8" style="stop-color:#ED683C"/>
			<stop  offset="1" style="stop-color:#E93E3A"/>
		</linearGradient>
		<path style="fill:url(#SVGID_1_);" d="M1178.312,0H62.016C27.766,0,0,27.766,0,62.016v744.197
			c0,34.251,27.766,62.016,62.016,62.016h351.426c57.056,0.068,103.292,46.305,103.361,103.361
			c-0.102,57.042-46.319,103.258-103.361,103.361c-0.269,0-0.475,0.145-0.744,0.145c-1.583,0.127-3.145,0.446-4.651,0.951
			c-1.077,0.201-2.134,0.492-3.163,0.868c-2.226,1.407-4.366,2.946-6.408,4.61c-0.775,0.981-1.467,2.025-2.067,3.122
			c-0.823,1.168-1.516,2.423-2.067,3.742c-0.103,0.248-0.31,0.434-0.413,0.703l-41.344,124.033
			c-3.608,10.832,2.248,22.537,13.08,26.145c2.075,0.691,4.247,1.049,6.434,1.059h496.131c11.417,0.003,20.674-9.25,20.677-20.667
			c0-2.222-0.357-4.429-1.059-6.537l-41.344-124.033c0-0.269-0.31-0.455-0.413-0.703c-0.573-1.342-1.301-2.611-2.171-3.783
			c-0.597-1.085-1.289-2.116-2.067-3.08c-0.905-0.848-1.888-1.609-2.935-2.274c-1.075-0.889-2.239-1.665-3.473-2.315
			c-1.041-0.393-2.112-0.697-3.204-0.91c-1.496-0.486-3.043-0.798-4.61-0.93c-0.269,0-0.475-0.145-0.744-0.145
			c-57.042-0.102-103.258-46.319-103.361-103.361c0.068-57.056,46.305-103.292,103.361-103.361h351.426
			c34.251,0,62.016-27.766,62.016-62.016V62.016C1240.328,27.766,1212.562,0,1178.312,0z M682.18,971.59
			c0.08,74.012,55.936,136.062,129.532,143.899l27.845,83.495H400.771l27.845-83.495c73.587-7.854,129.432-69.894,129.532-143.899
			c0.009-38.933-15.731-76.214-43.639-103.361h211.311C697.911,895.376,682.171,932.657,682.18,971.59z M1198.984,806.213
			c0,11.417-9.255,20.672-20.672,20.672H62.016c-11.417,0-20.672-9.255-20.672-20.672v-62.016h1157.639V806.213z M41.344,702.852
			V62.016c0-11.417,9.255-20.672,20.672-20.672h1116.295c11.417,0,20.672,9.255,20.672,20.672v640.836H41.344z"/>
		
			<linearGradient id="SVGID_2_" gradientUnits="userSpaceOnUse" x1="289.4099" y1="1213.5911" x2="289.4099" y2="-88.2984" gradientTransform="matrix(1 0 0 -1 0 1260)">
			<stop  offset="0" style="stop-color:#FFF33B"/>
			<stop  offset="0.014" style="stop-color:#FEE72E"/>
			<stop  offset="0.042" style="stop-color:#FED51B"/>
			<stop  offset="0.07" style="stop-color:#FDCA10"/>
			<stop  offset="0.1" style="stop-color:#FDC70C"/>
			<stop  offset="0.4" style="stop-color:#F3903F"/>
			<stop  offset="0.8" style="stop-color:#ED683C"/>
			<stop  offset="1" style="stop-color:#E93E3A"/>
		</linearGradient>
		<path style="fill:url(#SVGID_2_);" d="M413.443,144.705c-11.417,0-20.672,9.255-20.672,20.672V392.77H206.721
			c-11.417,0-20.672-9.255-20.672-20.672V165.377c0-11.417-9.255-20.672-20.672-20.672c-11.417,0-20.672,9.255-20.672,20.672
			v206.721c0,34.251,27.766,62.016,62.016,62.016H392.77V578.82c0,11.417,9.255,20.672,20.672,20.672s20.672-9.255,20.672-20.672
			V165.377C434.115,153.96,424.86,144.705,413.443,144.705z"/>
		
			<linearGradient id="SVGID_3_" gradientUnits="userSpaceOnUse" x1="950.918" y1="1220.5162" x2="950.918" y2="-81.3733" gradientTransform="matrix(1 0 0 -1 0 1260)">
			<stop  offset="0" style="stop-color:#FFF33B"/>
			<stop  offset="0.014" style="stop-color:#FEE72E"/>
			<stop  offset="0.042" style="stop-color:#FED51B"/>
			<stop  offset="0.07" style="stop-color:#FDCA10"/>
			<stop  offset="0.1" style="stop-color:#FDC70C"/>
			<stop  offset="0.4" style="stop-color:#F3903F"/>
			<stop  offset="0.8" style="stop-color:#ED683C"/>
			<stop  offset="1" style="stop-color:#E93E3A"/>
		</linearGradient>
		<path style="fill:url(#SVGID_3_);" d="M1074.951,144.705c-11.417,0-20.672,9.255-20.672,20.672V392.77H868.229
			c-11.417,0-20.672-9.255-20.672-20.672V165.377c0-11.417-9.255-20.672-20.672-20.672s-20.672,9.255-20.672,20.672v206.721
			c0,34.251,27.766,62.016,62.016,62.016h186.049V578.82c0,11.417,9.255,20.672,20.672,20.672s20.672-9.255,20.672-20.672V165.377
			C1095.623,153.96,1086.368,144.705,1074.951,144.705z"/>
		
			<linearGradient id="SVGID_4_" gradientUnits="userSpaceOnUse" x1="620.1639" y1="1217.6842" x2="620.1639" y2="-86.6859" gradientTransform="matrix(1 0 0 -1 0 1260)">
			<stop  offset="0" style="stop-color:#FFF33B"/>
			<stop  offset="0.014" style="stop-color:#FEE72E"/>
			<stop  offset="0.042" style="stop-color:#FED51B"/>
			<stop  offset="0.07" style="stop-color:#FDCA10"/>
			<stop  offset="0.1" style="stop-color:#FDC70C"/>
			<stop  offset="0.4" style="stop-color:#F3903F"/>
			<stop  offset="0.8" style="stop-color:#ED683C"/>
			<stop  offset="1" style="stop-color:#E93E3A"/>
		</linearGradient>
		<path style="fill:url(#SVGID_4_);" d="M702.852,144.705H537.475c-34.251,0-62.016,27.766-62.016,62.016v330.754
			c0,34.251,27.766,62.016,62.016,62.016h165.377c34.251,0,62.016-27.766,62.016-62.016V206.721
			C764.869,172.471,737.103,144.705,702.852,144.705z M723.525,537.475c0,11.417-9.255,20.672-20.672,20.672H537.475
			c-11.417,0-20.672-9.255-20.672-20.672V206.721c0-11.417,9.255-20.672,20.672-20.672h165.377c11.417,0,20.672,9.255,20.672,20.672
			V537.475z"/>
	</g>
</g>
<g>
</g>
<g>
</g>
<g>
</g>
<g>
</g>
<g>
</g>
<g>
</g>
<g>
</g>
<g>
</g>
<g>
</g>
<g>
</g>
<g>
</g>
<g>
</g>
<g>
</g>
<g>
</g>
<g>
</g>
</svg>
